Coordinates
version=1
nRows=29
nColumns=24
inDegrees=yes

Units are S.I. units (second, meters, Newtons, ...)
Angles are in degrees.

endheader
time	pelvis_tilt	pelvis_list	pelvis_rotation	pelvis_tx	pelvis_ty	pelvis_tz	hip_flexion_r	hip_adduction_r	hip_rotation_r	knee_angle_r	ankle_angle_r	subtalar_angle_r	mtp_angle_r	hip_flexion_l	hip_adduction_l	hip_rotation_l	knee_angle_l	ankle_angle_l	subtalar_angle_l	mtp_angle_l	lumbar_extension	lumbar_bending	lumbar_rotation
      4.61000000	      6.84836607	      4.26504770	     -5.21418211	     -2.49064562	      0.75081115	      0.46672130	     13.04937963	     -1.91173576	      4.48697137	    -59.41512205	      2.08843751	    -24.32917831	      0.00000000	     -2.87501464	      8.36893620	     -4.09864406	     -9.01974210	      9.68530260	    -20.13973050	      0.00000000	    -27.03363217	    -10.24179524	      2.85181773
      4.62000000	      6.73513223	      3.80807131	     -4.62385816	     -2.47964438	      0.75183633	      0.46592472	     14.28870497	     -1.37595923	      3.69667400	    -57.28444633	      2.88235152	    -25.09049675	      0.00000000	     -4.05508602	      7.96917569	     -3.65239849	     -8.44287786	     10.08081257	    -19.89357964	      0.00000000	    -27.22573345	     -9.50331906	      2.09339447
      4.63000000	      6.73089236	      3.42355762	     -4.06411649	     -2.46867200	      0.75269875	      0.46526731	     15.24700518	     -0.92750100	      2.97411247	    -54.74478149	      3.16296894	    -26.35802516	      0.00000000	     -5.33186571	      7.62252534	     -3.29933973	     -7.86348633	     10.41992726	    -19.62525985	      0.00000000	    -27.54274064	     -8.87886350	      1.34696253
      4.64000000	      6.68442807	      3.16634751	     -3.50526683	     -2.45770652	      0.75316749	      0.46466605	     16.13640811	     -0.67998861	      2.18844300	    -51.89284519	      3.41488175	    -27.50819421	      0.00000000	     -6.49879843	      7.38403899	     -2.94816829	     -7.36863772	     10.84789800	    -19.36565151	      0.00000000	    -27.79580086	     -8.39851516	      0.59705497
      4.65000000	      6.62916423	      3.03146736	     -2.93904804	     -2.44672959	      0.75330069	      0.46414125	     16.89042788	     -0.60312866	      1.37669028	    -48.71078527	      3.43027076	    -28.78432970	      0.00000000	     -7.58595090	      7.24733685	     -2.64161148	     -6.97774610	     11.26215037	    -19.08989945	      0.00000000	    -28.02121214	     -8.06361076	     -0.15558944
      4.66000000	      6.55829551	      3.02552825	     -2.36978573	     -2.43570849	      0.75308394	      0.46367776	     17.51912775	     -0.70201319	      0.53661442	    -45.23627124	      3.42992092	    -29.83674398	      0.00000000	     -8.59731882	      7.22547640	     -2.35425314	     -6.68495156	     11.69760316	    -18.82958188	      0.00000000	    -28.20945292	     -7.87085000	     -0.93372539
      4.67000000	      6.42237487	      3.17135625	     -1.78154864	     -2.42462511	      0.75245334	      0.46323343	     18.09662134	     -1.01124662	     -0.37737864	    -41.53772566	      3.58720334	    -30.33667719	      0.00000000	     -9.47493231	      7.34544940	     -2.02630415	     -6.51236594	     12.15562336	    -18.65503026	      0.00000000	    -28.29968769	     -7.83217309	     -1.76893187
      4.68000000	      6.37901414	      3.37146471	     -1.22729025	     -2.41343376	      0.75164415	      0.46291067	     18.37758164	     -1.32806049	     -1.13339289	    -37.52612026	      3.75766710	    -30.54301097	      0.00000000	    -10.45067753	      7.51150685	     -1.72231825	     -6.37019692	     12.61719545	    -18.45733308	      0.00000000	    -28.47125978	     -7.87253766	     -2.53552741
      4.69000000	      6.32134468	      3.66974210	     -0.65821950	     -2.40213488	      0.75052656	      0.46260666	     18.53611809	     -1.75168446	     -1.86557103	    -33.32347852	      4.09354147	    -30.11296787	      0.00000000	    -11.38635632	      7.76040014	     -1.41655789	     -6.30196416	     13.10873694	    -18.27593962	      0.00000000	    -28.60446234	     -8.00882842	     -3.32174856
      4.70000000	      6.20601636	      4.09174535	     -0.07131621	     -2.39072585	      0.74906496	      0.46229403	     18.67695178	     -2.34054134	     -2.70163295	    -29.04525062	      4.97564990	    -28.41702044	      0.00000000	    -12.23011085	      8.11791741	     -1.10327642	     -6.32927278	     13.62636160	    -18.07853243	      0.00000000	    -28.65482207	     -8.26662754	     -4.18621614
      4.71000000	      6.09159797	      4.56050428	      0.50313928	     -2.37917607	      0.74738270	      0.46202766	     18.68170878	     -2.92182354	     -3.33060005	    -24.62697848	      5.81195414	    -26.28975093	      0.00000000	    -13.10603967	      8.50609149	     -0.71450983	     -6.35358114	     14.13621186	    -17.93637364	      0.00000000	    -28.68478503	     -8.57454129	     -5.01495953
      4.72000000	      5.96561564	      5.07622147	      1.06677468	     -2.36747572	      0.74549830	      0.46179079	     18.59310982	     -3.51663187	     -3.76337777	    -20.13831231	      6.59367754	    -23.69267623	      0.00000000	    -13.99606259	      8.91864857	     -0.30028853	     -6.38443387	     14.60708178	    -17.79714745	      0.00000000	    -28.68349598	     -8.92991576	     -5.83965984
      4.73000000	      5.82181326	      5.61881026	      1.62014990	     -2.35560307	      0.74343861	      0.46158335	     18.42614683	     -4.10800298	     -3.89936235	    -15.62822161	      7.18473693	    -20.89405225	      0.00000000	    -14.89714728	      9.32825130	      0.14251123	     -6.41888739	     15.02595957	    -17.63467791	      0.00000000	    -28.63914314	     -9.31112283	     -6.65325952
      4.74000000	      5.65543326	      6.18345551	      2.16890238	     -2.34354467	      0.74122684	      0.46139243	     18.19322228	     -4.71097687	     -3.62925139	    -11.16449028	      7.50066953	    -18.18228716	      0.00000000	    -15.80482613	      9.72565448	      0.64552912	     -6.46026778	     15.40211820	    -17.44170055	      0.00000000	    -28.54680034	     -9.70922468	     -7.46790975
      4.75000000	      5.49272407	      6.76805765	      2.71168036	     -2.33129521	      0.73892101	      0.46121851	     17.82509230	     -5.34238599	     -2.60009157	     -6.74906491	      7.22690479	    -16.31232666	      0.00000000	    -16.74327908	     10.10200976	      1.20768521	     -6.51569288	     15.73206589	    -17.17877735	      0.00000000	    -28.44278165	    -10.11781619	     -8.27207796
      4.76000000	      5.23969571	      7.39395720	      3.22481242	     -2.31888279	      0.73643813	      0.46106129	     17.59851857	     -6.10747086	     -1.26954084	     -2.71461032	      6.99514518	    -14.50473731	      0.00000000	    -17.58249572	     10.49613484	      1.82441089	     -6.62941310	     16.07159863	    -16.90687077	      0.00000000	    -28.21922743	    -10.58720891	     -9.07176186
      4.77000000	      5.07916512	      7.91416064	      3.75438297	     -2.30625300	      0.73408711	      0.46086171	     17.31084483	     -6.86295037	      0.00221112	      0.88335249	      6.85420649	    -12.74595256	      0.00000000	    -18.55859268	     10.72314914	      2.53229549	     -6.72041333	     16.26740148	    -16.53274732	      0.00000000	    -28.07321757	    -10.89631955	     -9.79698030
      4.78000000	      4.85487646	      8.40704321	      4.23494498	     -2.29353004	      0.73170560	      0.46071994	     17.25081286	     -7.64107666	      1.25872739	      3.83566389	      6.74240813	    -11.20096062	      0.00000000	    -19.42000752	     10.90237290	      3.24185347	     -6.90604067	     16.46509774	    -16.17828630	      0.00000000	    -27.85196339	    -11.19587334	    -10.45982518
      4.79000000	      4.66772138	      8.77632674	      4.69716511	     -2.28065791	      0.72946913	      0.46061673	     17.29607135	     -8.30421800	      2.37269702	      6.08940776	      6.81131925	     -9.92416932	      0.00000000	    -20.30092150	     10.91803731	      3.98699565	     -7.12818382	     16.55420588	    -15.76912442	      0.00000000	    -27.65130707	    -11.34280412	    -11.02841770
      4.80000000	      4.50596313	      9.00941214	      5.11172395	     -2.26767359	      0.72738696	      0.46060637	     17.48582341	     -8.79744265	      3.37130086	      7.56201977	      7.03917014	     -8.93060667	      0.00000000	    -21.15535000	     10.77385208	      4.72211782	     -7.41898155	     16.54259051	    -15.35090967	      0.00000000	    -27.46991210	    -11.34728443	    -11.48391040
      4.81000000	      4.36485287	      9.12508234	      5.46087710	     -2.25453423	      0.72544781	      0.46071469	     17.80005791	     -9.11363977	      4.28400719	      8.26664826	      7.43326925	     -8.25229009	      0.00000000	    -21.98698549	     10.50386219	      5.39615776	     -7.75416665	     16.44507181	    -14.94666927	      0.00000000	    -27.28903906	    -11.23341371	    -11.82010103
      4.82000000	      4.24881042	      9.11733423	      5.74392841	     -2.24120682	      0.72365520	      0.46095121	     18.20153531	     -9.24290307	      5.15967026	      8.23771303	      7.92772389	     -7.86499062	      0.00000000	    -22.78789089	     10.11109172	      5.98373364	     -8.15433675	     16.22573973	    -14.55686751	      0.00000000	    -27.11037650	    -10.99766547	    -12.03446782
      4.83000000	      4.15598217	      9.01602092	      5.97154025	     -2.22764969	      0.72199131	      0.46131039	     18.64485901	     -9.22078909	      6.02599194	      7.56349345	      8.46176275	     -7.72031057	      0.00000000	    -23.56507122	      9.63142028	      6.47926577	     -8.61253747	     15.88322530	    -14.17917569	      0.00000000	    -26.93296015	    -10.67134105	    -12.16130984
      4.84000000	      4.07028382	      8.83390284	      6.16468707	     -2.21378318	      0.72042959	      0.46179535	     19.09695531	     -9.06436905	      6.85514313	      6.35697893	      8.93338729	     -7.82427408	      0.00000000	    -24.31218817	      9.07523512	      6.86507393	     -9.11918264	     15.38836547	    -13.81176702	      0.00000000	    -26.72467107	    -10.26759211	    -12.24241070
      4.85000000	      3.94361876	      8.64311040	      6.35255006	     -2.19957537	      0.71889605	      0.46238199	     19.50646244	     -8.88694750	      8.02947574	      4.85119229	      8.83568769	     -8.96248961	      0.00000000	    -24.98339742	      8.51920074	      7.18101300	     -9.68966680	     14.68385802	    -13.48489512	      0.00000000	    -26.43460211	     -9.87213730	    -12.30759950
      4.86000000	      3.90101886	      8.34648303	      6.58552649	     -2.18499402	      0.71756631	      0.46306468	     19.70470487	     -8.56530023	      9.18969274	      3.16577056	      8.22388007	    -10.74121489	      0.00000000	    -25.66134544	      7.81305783	      7.23729124	    -10.37395408	     13.95638210	    -13.00968428	      0.00000000	    -26.19812132	     -9.34340390	    -12.46224871
      4.87000000	      3.81762937	      7.99370576	      6.88253774	     -2.17010122	      0.71635905	      0.46382891	     19.86844986	     -8.14461662	     10.14960102	      1.33534258	      6.97585461	    -13.07815743	      0.00000000	    -26.18504621	      7.03013401	      7.15100850	    -11.22428464	     13.03467303	    -12.51422055	      0.00000000	    -25.87959283	     -8.76697656	    -12.64273280
      4.88000000	      3.78188087	      7.56259294	      7.23220368	     -2.15498253	      0.71542929	      0.46466145	     19.90678169	     -7.59694211	     10.84212877	     -0.54782184	      4.98504219	    -15.90978764	      0.00000000	    -26.60768542	      6.13315387	      6.81136468	    -12.26385858	     11.84711573	    -12.01773832	      0.00000000	    -25.59382933	     -8.08840083	    -12.90536385
      4.89000000	      3.77566503	      6.98092142	      7.62921829	     -2.13971240	      0.71481303	      0.46557342	     19.91953118	     -6.84105525	     11.04622036	     -2.52872920	      2.61611198	    -18.78493509	      0.00000000	    -26.86472110	      5.06384306	      6.31049797	    -13.54007050	     10.38572929	    -11.55359765	      0.00000000	    -25.31179642	     -7.24849776	    -13.14891080
